inDegrees=no
num_controls=7
num_derivatives=13
num_iterations=104
num_multipliers=7
num_parameters=0
num_slacks=7
num_states=26
objective=0.444909
objective_accelerations=0.058056
objective_balance=0.003614
objective_effort=0.023397
objective_height=0.354341
objective_ligament=0.005501
solver_duration=1516.023621
status=Solve_Succeeded
success=true
DataType=double
version=3
OpenSimVersion=4.5
endheader
time	/jointset/ground_pelvis/pelvis_tilt/value	/jointset/ground_pelvis/pelvis_tx/value	/jointset/ground_pelvis/pelvis_ty/value	/jointset/hip_l/hip_flexion_l/value	/jointset/hip_l/hip_adduction_l/value	/jointset/hip_l/hip_rotation_l/value	/jointset/back/lumbar_extension/value	/jointset/patellofemoral_l/patellar_flexion_l/value	/jointset/knee_l/knee_flexion_l/value	/jointset/knee_l/knee_adduction_l/value	/jointset/knee_l/knee_rotation_l/value	/jointset/ankle_l/ankle_angle_l/value	/jointset/subtalar_l/subtalar_angle_l/value	/jointset/ground_pelvis/pelvis_tilt/speed	/jointset/ground_pelvis/pelvis_tx/speed	/jointset/ground_pelvis/pelvis_ty/speed	/jointset/hip_l/hip_flexion_l/speed	/jointset/hip_l/hip_adduction_l/speed	/jointset/hip_l/hip_rotation_l/speed	/jointset/back/lumbar_extension/speed	/jointset/patellofemoral_l/patellar_flexion_l/speed	/jointset/knee_l/knee_flexion_l/speed	/jointset/knee_l/knee_adduction_l/speed	/jointset/knee_l/knee_rotation_l/speed	/jointset/ankle_l/ankle_angle_l/speed	/jointset/subtalar_l/subtalar_angle_l/speed	/forceset/tau_hip_flexion_l	/forceset/tau_hip_adduction_l	/forceset/tau_hip_rotation_l	/forceset/tau_knee_flexion_l	/forceset/tau_ankle_angle_l	/forceset/tau_subtalar_angle_l	/forceset/tau_lumbar_extension	lambda_cid13_p0	lambda_cid13_p1	lambda_cid13_p2	lambda_cid13_p3	lambda_cid13_p4	lambda_cid13_p5	lambda_cid14_p0	/jointset/ground_pelvis/pelvis_tilt/accel	/jointset/ground_pelvis/pelvis_tx/accel	/jointset/ground_pelvis/pelvis_ty/accel	/jointset/hip_l/hip_flexion_l/accel	/jointset/hip_l/hip_adduction_l/accel	/jointset/hip_l/hip_rotation_l/accel	/jointset/back/lumbar_extension/accel	/jointset/patellofemoral_l/patellar_flexion_l/accel	/jointset/knee_l/knee_flexion_l/accel	/jointset/knee_l/knee_adduction_l/accel	/jointset/knee_l/knee_rotation_l/accel	/jointset/ankle_l/ankle_angle_l/accel	/jointset/subtalar_l/subtalar_angle_l/accel	gamma_cid13_p0	gamma_cid13_p1	gamma_cid13_p2	gamma_cid13_p3	gamma_cid13_p4	gamma_cid13_p5	gamma_cid14_p0
1	-0.5624827957693552	-0.08648276224608106	0.5681660648661557	1.865613851046561	-0.4670991744350173	0.01755026463735697	-0.2617937414565694	1.391311035807494	1.391311035807484	-0.0842725814646211	-0.1745276750751105	0.2104993816763231	-0.01535489693229494	-0.0266907639556252	0.008358529130553034	0.002943642363242248	0.006138251078467393	-0.002370733496545757	0.002538987637927924	3.687097467800147e-05	-0.00548452308656063	-0.005484523086560777	-0.008253298202368772	-7.912992332064946e-05	0.01393122019524981	0.0050157578248512	-0.3410021754404229	0.01060324464683267	0.0003367165221643196	-0.301781001999164	0.04323198575056966	0.032045229802042	0.2895335677189973	-26.16747485597997	-10.08489540856801	2.127871508890358	6.619282211413966	-644.5569267062217	-47.38300659455869	-1.288676876054784	1.546901685688342	0.2613449950876173	2.003253914100951	-6.949071993356279	-0.113710140624661	-2.39217272996192	-0.01921825182752486	-5.317365172939698	-5.317365172939693	-0.5968496567799731	-0.06254500074297406	-0.6015414423322296	-0.4557380906580878	1.200836902488984e-09	1.146246059734417e-08	-9.958486312493938e-10	4.518679963753574e-09	-3.632795471987107e-09	2.448229643906134e-08	-1.621478564665622e-10
1.01	-0.5626732889603867	-0.08638617967882983	0.5682955207527317	1.865329104360639	-0.4671272740794013	0.01745523647279039	-0.2617933498556095	1.390990425640432	1.390990425640404	-0.08438214455426389	-0.1745297662912685	0.2106088201044953	-0.01532575394705014	-0.011403612692315	0.0109592939378594	0.02294402505524256	-0.06307921050835506	-0.003220868445399416	-0.02149995534377635	3.565415829239859e-05	-0.0586360401308675	-0.05863604013086791	-0.01366151986554295	-0.0002856299990730942	0.007954249894842332	0.0008468023238538619	-0.3409591459940586	0.0107478358417024	0.0003217038452905525	-0.3015580500347486	0.04303663046156782	0.03207819383098211	0.28948932199599	-26.21736809379513	-10.09496633505382	2.134606393578966	6.571708311734731	-644.4156329012318	-47.39327060742737	-1.295095301607499	1.520260177108837	0.2596403920455453	1.997901663140147	-6.906827736286873	-0.06642120550279765	-2.403060862473279	0.008557344604919959	-5.31382260723148	-5.313822607231548	-0.5131403801654641	0.008332011507782022	-0.5961054600526127	-0.3923880189472609	-2.51170543232351e-09	1.507274171236739e-08	4.817669883612311e-08	8.587739412036534e-09	-1.141689386584915e-08	7.391006931216273e-08	-9.078489910841971e-09
1.02	-0.5627107829726936	-0.08626354982980688	0.5686248747095057	1.864352434159861	-0.4671630262799714	0.01712115772236705	-0.2617931442745838	1.390138344775517	1.39013834477547	-0.08454585625235429	-0.1745323156036841	0.2106584227024318	-0.01533728326464064	0.003909071789254358	0.01356798548490215	0.04292325640286829	-0.1322464518928435	-0.003901244733736251	-0.04527112953342469	-3.330121332402083e-07	-0.1117786626573874	-0.1117786626573882	-0.01908301989189012	-0.0001707491748590711	0.001964054148130565	-0.003118702742211665	-0.340916116547694	0.01089242703657214	0.0003066911684169079	-0.3013350980703332	0.04284127517256598	0.03211115785992223	0.2894450762729829	-26.27282457801823	-10.10399144939365	2.141092683645233	6.544221038279469	-644.353141298122	-47.38089977229371	-1.311586574110977	1.552008329340173	0.2629303430348929	1.999023645226035	-6.939027952889479	-0.07975840852129554	-2.338618971550734	-0.02617232263553276	-5.315586269382375	-5.315586269382324	-0.5995053294145684	0.001731179250319709	-0.604186531593089	-0.4150480036717259	-1.419573426205363e-08	-4.28150644263582e-09	8.105758651841483e-08	5.315613507553565e-09	-2.316276748160589e-08	1.277737182980632e-07	-2.406414216642386e-08
1.03	-0.5625949301175052	-0.08611471872488266	0.5691538168599075	1.862684431241482	-0.4672050550703383	0.01655010072705356	-0.2617933537392074	1.388755067964897	1.388755067964868	-0.08476369659668367	-0.1745329251994329	0.21064796342154	-0.01538790043252048	0.01927484924534548	0.01620699519024777	0.06285189315325983	-0.2013369994973828	-0.004507690176162651	-0.06895634998946271	-3.532935264181044e-05	-0.1648567782231992	-0.1648567782231952	-0.02447089184669987	1.98524685794525e-05	-0.004067167206260083	-0.007014801139139921	-0.3406801530683982	0.01106441001180877	0.0002500503559068178	-0.3008673443227513	0.04262831797728861	0.032232794106348	0.2892999025813238	-26.31170607545337	-10.16281934754455	2.165102567868363	6.430147684226212	-643.9927214320942	-47.4272617878603	-1.33835511543538	1.530860871925463	0.2657006112605424	1.987784550064428	-6.891503067578977	-0.05157313636855336	-2.385909892758428	0.008771294229177032	-5.300928100137785	-5.300928100137082	-0.5063203615621962	0.02359293913894962	-0.6042796561286289	-0.3784106960242216	-2.596110479071152e-08	-2.387008652896596e-08	1.137722327743281e-07	1.968577548450497e-09	-3.494906737513708e-08	1.816826313259311e-07	-3.911172615875278e-08
1.04	-0.5623250198041193	-0.08593923465750977	0.5698816455498371	1.86032603586639	-0.4672532454199827	0.01574170426515407	-0.2617937262504384	1.386841609218628	1.386841609218617	-0.08503499410717075	-0.1745324674902242	0.210576853983351	-0.01547778257203377	0.03472056342871193	0.01889857797463908	0.0827005643084003	-0.2703249432356353	-0.005133556589198713	-0.09273902285062459	-3.294233363631064e-05	-0.2178150497872991	-0.2178150497872904	-0.02977445312343028	4.518540195121005e-05	-0.0101659773113138	-0.01097169706890206	-0.3404441895891029	0.01123639298704537	0.0001934095433967599	-0.3003995905751645	0.04241536078201128	0.03235443035277376	0.2891547288896645	-26.35618095385313	-10.2205945519727	2.188860898359696	6.33607689580022	-643.711562692772	-47.45154910496286	-1.375699986095913	1.567995674795241	0.2734449588440295	1.983030526175818	-6.918507179632091	-0.08364260264322804	-2.358109452575513	-0.01869565073271998	-5.291617469039971	-5.291617469039986	-0.5826431937986996	-0.03132256276303355	-0.617704281725704	-0.4272075102385023	-3.181179474938936e-08	-2.360039600342452e-08	1.658401195906152e-07	6.45070700846945e-09	-4.43355800911364e-08	2.343887226544836e-07	-4.969413273759082e-08
1.05	-0.5619001852040265	-0.08573655667293846	0.5708074999635817	1.857278403492138	-0.4673074529355564	0.01469581006067109	-0.2617940120485157	1.384399214953095	1.384399214953094	-0.08535919808224446	-0.1745319080013651	0.2104443762687411	-0.01560714070658022	0.05026582140260029	0.02164717592158932	0.1024509796813639	-0.3391709957117439	-0.00567518684153202	-0.1163740169350721	-2.977941009920129e-05	-0.2706394112328352	-0.2706394112328298	-0.03507829741443307	0.0001103481058766744	-0.01634430832041053	-0.0148672604160458	-0.3398579213102088	0.01150708725867135	0.000112884184883944	-0.2998560502284683	0.04232338543705588	0.03252556838418241	0.288755785251359	-26.34309287374622	-10.31691806951924	2.226727193265599	6.175972495691433	-643.1355969351858	-47.53879299608768	-1.4240979514281	1.550704615133728	0.2770930431602557	1.968135405509226	-6.863080921505524	-0.03453158856354667	-2.356361554364638	0.008987944649952324	-5.274174536462563	-5.274174536462491	-0.5060696723495963	0.03203524825289377	-0.6201082034898804	-0.3658526022491655	-3.747765094025536e-08	-2.271013452126221e-08	2.185127951744138e-07	1.117749788783592e-08	-5.364709945783785e-08	2.870572258049324e-07	-6.013700252225729e-08
1.06	-0.5613193152729051	-0.0855060875427897	0.5719302762035863	1.853543225265144	-0.4673660984240605	0.01341553248174658	-0.2617944330812068	1.381429311262277	1.381429311262285	-0.08573680342534792	-0.1745293769732099	0.2102496731054426	-0.01577447884565748	0.06592762963441252	0.0244568070901281	0.1220849295604352	-0.4078341137840636	-0.006021151175271928	-0.1396156977389304	-5.99892564409934e-05	-0.3233169348444566	-0.323316934844447	-0.04045472672937696	0.0004394932611044278	-0.02261106704904243	-0.01856769797506378	-0.3392716530313144	0.01177778153029734	3.235882637117039e-05	-0.2993125098817721	0.04223141009210045	0.03269670641559106	0.2883568416130537	-26.33568147209703	-10.41225329641617	2.264442461172844	6.035566053437978	-642.6399291221036	-47.60502450088789	-1.484063014758989	1.591305726380018	0.285651603161737	1.959737427397364	-6.881920298874282	-0.04450941892454829	-2.279446796457669	-0.02537020470850097	-5.262249902256987	-5.262249902256987	-0.597160198586917	0.02147392749742372	-0.635389825633358	-0.388182352613352	-4.455893543376738e-08	-3.21199607402572e-08	2.483540996906976e-07	1.117884163231289e-08	-6.221812337445022e-08	3.231288842053018e-07	-6.962807079311709e-08
1.07	-0.5605814093573558	-0.08524720197782361	0.5732487189148313	1.849122683374754	-0.4674271461416233	0.01190431627424429	-0.26179514185044	1.37793340321578	1.377933403215784	-0.08616795365419755	-0.17452236444884	0.2099917404123539	-0.015977804530477	0.0816546689607687	0.02733173813703775	0.1415751636363592	-0.4762067587074719	-0.006144610994414768	-0.1626099067832751	-6.729291665071079e-05	-0.3758369405904917	-0.375836940590497	-0.04572514763980504	0.0009994553650936678	-0.02900124530825302	-0.02205615956372716	-0.3383364321230081	0.01211936024966796	-8.751990141646351e-05	-0.2986783313269623	0.04226302081068119	0.03290924902832702	0.2877186904997457	-26.26918529128734	-10.54233133237286	2.315024637404881	5.82493545901604	-641.8393775852946	-47.72078101100877	-1.55628411860254	1.563562502119326	0.2901308727783306	1.939384769254926	-6.804819984963762	0.01027553058024131	-2.306811934128005	0.01376030435273564	-5.242699883902457	-5.242699883904686	-0.4844863641877467	0.07879233746472622	-0.6446981208915689	-0.3230118951285741	-5.171550866678187e-08	-4.207766396463296e-08	2.769809695757304e-07	1.092883180578507e-08	-7.074975923520678e-08	3.583177317147093e-07	-7.906851132388079e-08
1.08	-0.5596862011552717	-0.08495922369892388	0.5747612076411488	1.844020438355952	-0.4674881204985797	0.01016367718115751	-0.2617954895060691	1.373913130317197	1.373913130317197	-0.08665030875753486	-0.1745086453063072	0.2096691326777078	-0.01621478159781031	0.09738808694136118	0.03027534987685744	0.1608941325748834	-0.5441747394664663	-0.006006479053981882	-0.1855002748558298	1.223346433914648e-05	-0.4281899052615543	-0.4281899052615744	-0.05069570162691276	0.001780816893684994	-0.03554607536053	-0.0252979744778203	-0.3374012112147011	0.01246093896903856	-0.0002073986292040983	-0.2980441527721507	0.04229463152926194	0.03312179164106297	0.2870805393864376	-26.20843210483752	-10.67139865207506	2.365439848227652	5.633842083611615	-641.1201295659695	-47.81731070759306	-1.641498763751214	1.59258145722728	0.2993877417437446	1.925484399917387	-6.800987465991466	0.007808932990597038	-2.258678602100109	-0.008004196468585786	-5.228841687262468	-5.228841687262469	-0.5371868139228428	0.06575381241784078	-0.6663201842466359	-0.3388530176993032	-5.847555445089684e-08	-4.353875914730732e-08	3.302496243543174e-07	1.529438059089813e-08	-8.057825045432202e-08	4.08544866121347e-07	-9.006568724674873e-08
